<svg xmlns="http://www.w3.org/2000/svg" xmlns:xlink="http://www.w3.org/1999/xlink" version="1.1" width="1000" height="1000" viewBox="0 0 1000 1000" xml:space="preserve">
<desc>Created with Fabric.js 3.5.0</desc>
<defs>
</defs>
<rect x="0" y="0" width="100%" height="100%" fill="rgba(255,255,255,0)"/>
<g transform="matrix(10.8766 0 0 11.4363 484.0852 499.9994)" id="366864">
<path style="stroke: rgb(21,101,216); stroke-width: 1.4; stroke-dasharray: none; stroke-linecap: butt; stroke-dashoffset: 0; stroke-linejoin: miter; stroke-miterlimit: 4; is-custom-font: none; font-file-url: none; fill: none; fill-rule: nonzero; opacity: 1;" vector-effect="non-scaling-stroke" transform=" translate(-25, -23.5998)" d="M 1.09543 18.2329 L 25 0.865247 L 48.9046 18.2329 L 39.7738 46.3344 H 10.2262 L 1.09543 18.2329 Z" stroke-linecap="round"/>
</g>
<g transform="matrix(9 0 0 9 484.3478 500)" id="303096">
<g style="" vector-effect="non-scaling-stroke">
		<g transform="matrix(1 0 0 1 0 1.6667)">
<path style="stroke: none; stroke-width: 1; stroke-dasharray: none; stroke-linecap: butt; stroke-dashoffset: 0; stroke-linejoin: miter; stroke-miterlimit: 4; is-custom-font: none; font-file-url: none; fill: rgb(21,101,216); fill-rule: evenodd; opacity: 1;" transform=" translate(-9.9999, -11.6667)" d="M 3.33325 6.66667 C 2.87301 6.66667 2.49992 7.03976 2.49992 7.5 V 15.8333 C 2.49992 16.2936 2.87301 16.6667 3.33325 16.6667 H 16.6666 C 17.1268 16.6667 17.4999 16.2936 17.4999 15.8333 V 7.5 C 17.4999 7.03976 17.1268 6.66667 16.6666 6.66667 H 3.33325 Z M 0.833252 7.5 C 0.833252 6.11929 1.95254 5 3.33325 5 H 16.6666 C 18.0473 5 19.1666 6.11929 19.1666 7.5 V 15.8333 C 19.1666 17.214 18.0473 18.3333 16.6666 18.3333 H 3.33325 C 1.95254 18.3333 0.833252 17.214 0.833252 15.8333 V 7.5 Z" stroke-linecap="round"/>
</g>
		<g transform="matrix(1 0 0 1 0 0)">
<path style="stroke: none; stroke-width: 1; stroke-dasharray: none; stroke-linecap: butt; stroke-dashoffset: 0; stroke-linejoin: miter; stroke-miterlimit: 4; is-custom-font: none; font-file-url: none; fill: rgb(21,101,216); fill-rule: evenodd; opacity: 1;" transform=" translate(-9.9999, -10)" d="M 6.56549 2.3989 C 7.03433 1.93006 7.67021 1.66667 8.33325 1.66667 H 11.6666 C 12.3296 1.66667 12.9655 1.93006 13.4344 2.3989 C 13.9032 2.86774 14.1666 3.50363 14.1666 4.16667 V 17.5 C 14.1666 17.9602 13.7935 18.3333 13.3333 18.3333 C 12.873 18.3333 12.4999 17.9602 12.4999 17.5 V 4.16667 C 12.4999 3.94565 12.4121 3.73369 12.2558 3.57741 C 12.0996 3.42113 11.8876 3.33333 11.6666 3.33333 H 8.33325 C 8.11224 3.33333 7.90028 3.42113 7.744 3.57741 C 7.58772 3.73369 7.49992 3.94565 7.49992 4.16667 V 17.5 C 7.49992 17.9602 7.12682 18.3333 6.66658 18.3333 C 6.20635 18.3333 5.83325 17.9602 5.83325 17.5 V 4.16667 C 5.83325 3.50363 6.09664 2.86774 6.56549 2.3989 Z" stroke-linecap="round"/>
</g>
</g>
</g>
</svg>